<?xml version="1.0" encoding="utf-8"?>
<!-- Generator: Adobe Illustrator 25.2.3, SVG Export Plug-In . SVG Version: 6.00 Build 0)  -->
<svg version="1.1" id="Ebene_1" xmlns="http://www.w3.org/2000/svg" xmlns:xlink="http://www.w3.org/1999/xlink" x="0px" y="0px"
	 viewBox="0 0 288 50" style="enable-background:new 0 0 288 50;" xml:space="preserve">
<style type="text/css">
	.st0{fill:#04628A;}
	.st1{fill:#FBBA22;}
	.st2{fill:#DF4D12;}
	.st3{fill:#7C9D2B;}
</style>
<g>
	<g>
		<path id="Pfad_19" class="st0" d="M0,34.01l3.76-4.46c1.85,2.31,4.61,3.7,7.57,3.81c2.16,0,3.76-1.1,3.76-2.66
			c0-0.95-0.65-1.75-1.95-2.35c-0.45-0.2-1.51-0.6-3.26-1.25s-2.91-1.15-3.51-1.45c-3.16-1.5-4.71-3.86-4.71-7.06
			c-0.04-2.3,1-4.48,2.81-5.91c2.12-1.63,4.75-2.44,7.42-2.3c3.6-0.11,7.08,1.31,9.58,3.91l-3.51,4.56c-1.65-1.69-3.9-2.66-6.27-2.7
			c-1.86,0-3.11,1.05-3.11,2.3c0,1.15,0.8,1.95,2.41,2.5c3.61,1.35,5.82,2.25,6.57,2.65c3.06,1.6,4.61,3.91,4.61,6.91
			c0.05,2.46-1.07,4.8-3.01,6.31c-2.24,1.73-5.04,2.61-7.87,2.45C6.89,39.45,2.69,37.49,0,34.01z"/>
		<path id="Pfad_20" class="st0" d="M66.79,38.57h-7.07V0.5h7.07L66.79,38.57z"/>
		<path id="Pfad_21" class="st0" d="M93.96,11.27h6.72v27.3h-6.72v-3.16c-2.21,2.48-5.4,3.87-8.72,3.81
			c-3.69,0.11-7.23-1.39-9.73-4.11c-2.57-2.81-3.94-6.51-3.81-10.32c-0.12-3.77,1.27-7.43,3.86-10.17c2.5-2.67,6.02-4.15,9.68-4.06
			c3.35-0.04,6.54,1.41,8.72,3.96L93.96,11.27z M91.86,19.34c-2.97-3.03-7.84-3.08-10.87-0.11c-0.04,0.04-0.07,0.07-0.11,0.11
			c-1.39,1.52-2.14,3.51-2.11,5.56c-0.05,2.08,0.72,4.1,2.16,5.61c2.94,3.02,7.77,3.08,10.79,0.14c0.05-0.05,0.1-0.1,0.15-0.14
			C94.8,27.37,94.8,22.48,91.86,19.34L91.86,19.34z"/>
		<path id="Pfad_22" class="st0" d="M107.05,38.57v-27.3h6.77v3.66c1.43-2.81,4.37-4.53,7.52-4.41c1.13,0,2.25,0.21,3.31,0.6
			l-0.6,6.76c-1.05-0.34-2.15-0.53-3.26-0.55c-4.01,0-6.67,2.6-6.67,8.26v12.97L107.05,38.57z"/>
		<path id="Pfad_23" class="st0" d="M130.76,33.01c1.72-0.05,3.16,1.3,3.21,3.02c0,0.03,0,0.06,0,0.09c0,1.77-1.44,3.21-3.21,3.21
			s-3.21-1.44-3.21-3.21c0-1.72,1.4-3.11,3.12-3.11C130.7,33.01,130.73,33.01,130.76,33.01z"/>
		<path id="Pfad_24" class="st0" d="M146.01,10.07v1.65h8.58v4.11h-8.58v22.74h-4.81V15.83h-4.66v-4.11h4.66V9.97
			c0-6.36,4.01-9.97,10.03-9.97c2.09-0.01,4.16,0.49,6.01,1.45l-1.46,3.96c-1.25-0.57-2.59-0.89-3.96-0.95
			C147.96,4.46,146.01,6.31,146.01,10.07z"/>
		<path id="Pfad_25" class="st0" d="M179.15,11.72h4.61v26.85h-4.61v-3.81c-2.27,2.9-5.79,4.56-9.48,4.46
			c-3.65,0.1-7.17-1.4-9.63-4.11c-2.56-2.76-3.93-6.41-3.81-10.17c-0.13-3.69,1.24-7.27,3.81-9.92c2.5-2.62,6-4.06,9.63-3.96
			c3.7-0.06,7.21,1.63,9.48,4.56V11.72z M176.89,18.28c-1.7-1.87-4.14-2.89-6.67-2.8c-2.51-0.1-4.94,0.93-6.62,2.8
			c-3.34,3.97-3.34,9.76,0,13.73c1.68,1.87,4.1,2.9,6.62,2.8c2.53,0.09,4.96-0.94,6.67-2.8C180.3,28.07,180.3,22.22,176.89,18.28z"
			/>
		<path id="Pfad_26" class="st0" d="M230.09,14.17c1.96,2.05,2.91,4.86,2.91,8.42v15.98h-4.81V23.34c0-5.01-2.46-7.86-6.47-7.86
			c-4.21,0-7.17,3.2-7.17,7.96v15.13h-4.76V23.44c0-5.01-2.51-7.96-6.52-7.96c-4.21,0-7.22,3.2-7.22,8.06v15.03h-4.81V11.72h4.71
			v3.96c1.59-2.98,4.75-4.79,8.12-4.66c3.54-0.11,6.83,1.84,8.42,5.01c1.8-3.05,5.57-5.01,9.78-5.01
			C225.21,10.89,228.06,12.04,230.09,14.17z"/>
		<path id="Pfad_27" class="st0" d="M239.07,4.46c-0.02-1.84,1.46-3.34,3.3-3.36c0.07,0,0.14,0,0.2,0c1.88,0.06,3.36,1.62,3.31,3.5
			c-0.06,1.88-1.63,3.36-3.51,3.31C240.51,7.86,239.04,6.32,239.07,4.46z M244.88,38.57h-4.81V11.72h4.81V38.57z"/>
		<path id="Pfad_28" class="st0" d="M257.16,38.57h-4.81V0.65h4.81V38.57z"/>
		<path id="Pfad_29" class="st0" d="M282.69,11.73H288l-11.28,29.85c-2.26,6.01-5.12,8.42-9.33,8.42c-1.51,0.06-3-0.31-4.31-1.05
			l0.6-4.21c1.02,0.49,2.13,0.76,3.25,0.8c2.21,0,3.96-1.55,5.32-4.71l1-2.35l-11.68-26.75h5.56l8.32,20.13L282.69,11.73z"/>
	</g>
	<g>
		<path id="Pfad_30" class="st1" d="M40.22,10.75c-2.46,0-4.87,0.63-7.01,1.85c6.24,0.08,11.7,4.23,13.44,10.22
			c0.09,0.28,0.17,0.57,0.22,0.86l0,0c0.6,3.21-1.18,6.4-4.24,7.56c5.85-1.87,9.83-7.28,9.87-13.41
			C49.97,13.45,45.29,10.75,40.22,10.75"/>
		<path id="Pfad_31" class="st2" d="M54.41,24.93c0-2.49-0.65-4.94-1.9-7.09c-0.04,6.13-4.03,11.54-9.87,13.41
			c-0.45,0.17-0.92,0.3-1.4,0.37l0,0c-3.27,0.49-6.42-1.44-7.45-4.58c1.75,5.99,7.2,10.13,13.44,10.22
			C51.66,34.73,54.41,30.02,54.41,24.93z"/>
		<path id="Pfad_32" class="st3" d="M37.57,18.7c0.66-0.28,1.35-0.45,2.06-0.51l0,0c0.19-0.02,0.38-0.02,0.58-0.02
			c2.93,0,5.52,1.88,6.43,4.65c-1.74-5.99-7.2-10.14-13.45-10.22c-6.78,3.85-9.18,12.44-5.37,19.24
			C27.97,25.84,31.87,20.58,37.57,18.7z"/>
		<path id="Pfad_33" class="st0" d="M33.78,27.03c-0.09-0.28-0.17-0.57-0.22-0.87l0,0c-0.58-3.12,1.09-6.23,4.01-7.47
			c-5.7,1.88-9.61,7.15-9.74,13.14c3.83,6.83,12.48,9.28,19.32,5.45c0.03-0.01,0.05-0.03,0.08-0.04
			C40.98,37.17,35.53,33.02,33.78,27.03z"/>
	</g>
</g>
</svg>
